<?xml version="1.0" encoding="utf-8"?>
<!-- Generator: Adobe Illustrator 16.0.0, SVG Export Plug-In . SVG Version: 6.00 Build 0)  -->
<!DOCTYPE svg PUBLIC "-//W3C//DTD SVG 1.1//EN" "http://www.w3.org/Graphics/SVG/1.1/DTD/svg11.dtd">
<svg version="1.1" id="Layer_1" xmlns="http://www.w3.org/2000/svg" xmlns:xlink="http://www.w3.org/1999/xlink" x="0px" y="0px"
	 width="166px" height="36.5px" viewBox="0 0 166 36.5" enable-background="new 0 0 166 36.5" xml:space="preserve">
<g id="Layer_1_1_">
	<path fill="#1ABC9C" d="M29.7,31.3v3H3.75v-3H29.7z"/>
	<g>
		<path fill="#102F41" d="M40.355,35.122L39.27,31.02h0.556l0.625,2.688c0.067,0.284,0.125,0.563,0.172,0.84
			c0.106-0.438,0.169-0.69,0.188-0.758l0.777-2.771h0.656l0.586,2.078c0.147,0.514,0.255,0.995,0.319,1.448
			c0.053-0.258,0.12-0.555,0.203-0.891l0.646-2.638h0.547L43.42,35.12h-0.523l-0.862-3.125c-0.073-0.263-0.116-0.421-0.13-0.479
			c-0.044,0.188-0.084,0.349-0.12,0.479l-0.871,3.125L40.355,35.122L40.355,35.122z"/>
		<polygon fill="#102F41" points="51.06,35.122 51.06,31.021 54.023,31.021 54.023,31.505 51.603,31.505 51.603,32.764 
			53.872,32.764 53.872,33.243 51.603,33.243 51.603,34.639 54.118,34.639 54.118,35.122 		"/>
		<path fill="#102F41" d="M60.845,35.122V31.02h1.539c0.313,0,0.564,0.043,0.754,0.125c0.19,0.084,0.338,0.213,0.445,0.387
			c0.106,0.173,0.16,0.354,0.16,0.539c0,0.177-0.048,0.341-0.144,0.494c-0.096,0.156-0.239,0.281-0.432,0.377
			c0.25,0.07,0.44,0.193,0.574,0.369c0.133,0.176,0.198,0.385,0.198,0.623c0,0.19-0.041,0.368-0.121,0.533
			c-0.079,0.165-0.181,0.293-0.301,0.383s-0.27,0.157-0.449,0.203c-0.179,0.047-0.399,0.068-0.659,0.068L60.845,35.122
			L60.845,35.122z M61.388,32.743h0.887c0.242,0,0.416-0.017,0.521-0.048c0.138-0.041,0.242-0.109,0.311-0.204
			s0.104-0.214,0.104-0.357c0-0.136-0.033-0.255-0.099-0.356c-0.064-0.103-0.157-0.174-0.278-0.213s-0.329-0.06-0.623-0.06h-0.82
			v1.238H61.388z M61.388,34.639h1.023c0.174,0,0.297-0.008,0.366-0.021c0.125-0.021,0.23-0.058,0.314-0.111
			c0.084-0.053,0.154-0.13,0.207-0.229c0.053-0.098,0.08-0.213,0.08-0.344c0-0.151-0.039-0.287-0.117-0.398
			c-0.078-0.113-0.187-0.192-0.326-0.238s-0.339-0.066-0.6-0.066h-0.949L61.388,34.639L61.388,34.639z"/>
		<path fill="#102F41" d="M78.277,35.122V31.02h1.414c0.318,0,0.562,0.021,0.73,0.061c0.233,0.055,0.435,0.152,0.602,0.297
			c0.217,0.184,0.377,0.415,0.484,0.699c0.107,0.283,0.16,0.607,0.16,0.973c0,0.313-0.037,0.59-0.109,0.83
			c-0.072,0.241-0.166,0.439-0.279,0.6c-0.112,0.156-0.237,0.279-0.372,0.371c-0.136,0.09-0.3,0.156-0.49,0.203
			c-0.191,0.049-0.411,0.07-0.658,0.07L78.277,35.122L78.277,35.122z M78.82,34.639h0.875c0.271,0,0.483-0.024,0.638-0.076
			c0.153-0.051,0.275-0.123,0.367-0.213c0.13-0.129,0.23-0.301,0.303-0.519c0.073-0.218,0.106-0.481,0.106-0.791
			c0-0.427-0.069-0.756-0.211-0.985c-0.141-0.229-0.313-0.386-0.516-0.464c-0.146-0.058-0.379-0.086-0.699-0.086H78.82V34.639
			L78.82,34.639z"/>
		<polygon fill="#102F41" points="88.428,35.122 88.428,31.021 91.393,31.021 91.393,31.505 88.971,31.505 88.971,32.764 
			91.238,32.764 91.238,33.243 88.971,33.243 88.971,34.639 91.484,34.639 91.484,35.122 		"/>
		<path fill="#102F41" d="M99.407,35.122l-1.591-4.103h0.591L99.473,34c0.086,0.239,0.158,0.464,0.215,0.672
			c0.063-0.224,0.135-0.447,0.22-0.672l1.108-2.98h0.555l-1.604,4.104L99.407,35.122L99.407,35.122z"/>
		<polygon fill="#102F41" points="108.066,35.122 108.066,31.021 111.032,31.021 111.032,31.505 108.609,31.505 108.609,32.764 
			110.88,32.764 110.88,33.243 108.609,33.243 108.609,34.639 111.126,34.639 111.126,35.122 		"/>
		<polygon fill="#102F41" points="117.854,35.122 117.854,31.021 118.396,31.021 118.396,34.639 120.415,34.639 120.415,35.122 		
			"/>
		<path fill="#102F41" d="M126.898,33.126c0-0.683,0.184-1.216,0.549-1.601c0.365-0.383,0.839-0.575,1.416-0.575
			c0.378,0,0.719,0.091,1.021,0.271s0.535,0.435,0.695,0.756c0.159,0.323,0.239,0.69,0.239,1.104c0,0.414-0.084,0.785-0.252,1.111
			c-0.168,0.328-0.405,0.578-0.713,0.746c-0.308,0.17-0.64,0.254-0.996,0.254c-0.385,0-0.729-0.092-1.034-0.277
			c-0.306-0.188-0.535-0.439-0.691-0.766C126.977,33.825,126.898,33.484,126.898,33.126z M127.458,33.134
			c0,0.495,0.133,0.884,0.397,1.168c0.266,0.284,0.6,0.427,1,0.427c0.408,0,0.746-0.145,1.011-0.431
			c0.264-0.286,0.396-0.694,0.396-1.223c0-0.333-0.057-0.624-0.17-0.873s-0.279-0.442-0.496-0.58s-0.461-0.207-0.732-0.207
			c-0.383,0-0.713,0.132-0.988,0.396C127.598,32.075,127.458,32.518,127.458,33.134z"/>
		<path fill="#102F41" d="M137.521,35.122V31.02h1.547c0.272,0,0.481,0.015,0.625,0.039c0.201,0.034,0.369,0.101,0.507,0.193
			c0.137,0.094,0.245,0.229,0.327,0.396c0.082,0.166,0.123,0.354,0.123,0.559c0,0.35-0.11,0.645-0.332,0.885
			c-0.221,0.241-0.623,0.361-1.203,0.361h-1.051v1.668L137.521,35.122L137.521,35.122z M138.063,32.971h1.061
			c0.352,0,0.602-0.065,0.748-0.195c0.146-0.131,0.221-0.313,0.221-0.551c0-0.173-0.043-0.317-0.129-0.438s-0.201-0.201-0.344-0.24
			c-0.092-0.024-0.26-0.039-0.506-0.039h-1.051V32.971L138.063,32.971z"/>
		<polygon fill="#102F41" points="147.354,35.122 147.354,31.021 150.316,31.021 150.316,31.505 147.896,31.505 147.896,32.764 
			150.165,32.764 150.165,33.243 147.896,33.243 147.896,34.639 150.411,34.639 150.411,35.122 		"/>
		<path fill="#102F41" d="M157.168,35.122V31.02h1.818c0.365,0,0.644,0.037,0.832,0.111c0.19,0.074,0.344,0.204,0.455,0.391
			c0.113,0.188,0.17,0.395,0.17,0.619c0,0.289-0.094,0.534-0.279,0.734c-0.188,0.2-0.479,0.327-0.871,0.379
			c0.143,0.07,0.251,0.141,0.324,0.207c0.158,0.146,0.311,0.327,0.451,0.543l0.711,1.117h-0.68l-0.543-0.852
			c-0.158-0.248-0.289-0.438-0.393-0.566c-0.104-0.129-0.195-0.223-0.275-0.273c-0.08-0.05-0.162-0.089-0.246-0.109
			c-0.063-0.012-0.164-0.02-0.305-0.02h-0.629v1.82L157.168,35.122L157.168,35.122z M157.711,32.833h1.168
			c0.248,0,0.439-0.026,0.58-0.078c0.139-0.052,0.246-0.134,0.316-0.246c0.072-0.112,0.109-0.233,0.109-0.366
			c0-0.194-0.07-0.354-0.211-0.479s-0.363-0.188-0.668-0.188h-1.297L157.711,32.833L157.711,32.833z"/>
	</g>
	<g>
		<path fill="#102F41" d="M89.397,3.717c0.915,0.126,1.813,0.376,2.697,0.757c1.135,0.503,2.034,1.213,2.697,2.129
			c0.632,0.915,0.946,2.002,0.946,3.265c0,1.608-0.504,2.948-1.515,4.022c-0.473,0.535-0.946,0.994-1.419,1.371
			c-0.442,0.411-0.884,0.741-1.324,0.995l2.412,2.886c0.853,0.884,1.735,1.83,2.651,2.839c1.829,1.894,2.839,2.934,3.027,3.123
			l-2.081,1.656l-0.049,0.047c-0.031,0-0.047-0.016-0.047-0.047c-0.158-0.158-0.441-0.456-0.851-0.899
			c-0.412-0.473-0.995-1.151-1.752-2.034c-0.82-0.883-1.797-1.987-2.934-3.312c-1.167-1.293-2.54-2.839-4.117-4.636v-0.141
			c0.221-0.063,0.473-0.157,0.757-0.285c0.348-0.125,0.662-0.284,0.946-0.473c0.348-0.157,0.678-0.345,0.994-0.567
			c0.285-0.221,0.568-0.442,0.852-0.663c0.411-0.377,0.773-0.836,1.088-1.373c0.315-0.567,0.474-1.34,0.474-2.317
			c0-0.884-0.236-1.64-0.71-2.27c-0.442-0.631-1.073-1.104-1.893-1.419c-0.662-0.221-1.357-0.348-2.082-0.378
			c-0.727-0.062-1.403-0.095-2.035-0.095c-0.377,0-0.678,0-0.898,0c-0.22,0-0.378,0-0.473,0V3.579c0.157,0,0.284,0,0.378,0
			c0.473,0,0.931,0,1.372,0C87.488,3.575,88.45,3.623,89.397,3.717z M106.715,5.515c0.663-0.315,1.342-0.599,2.035-0.851
			c0.757-0.285,1.56-0.504,2.413-0.661c1.64-0.379,3.359-0.57,5.157-0.57h1.514l0.189,2.462h-1.324
			c-1.735,0-3.329,0.157-4.779,0.473c-1.166,0.22-2.224,0.536-3.17,0.946c-0.22,0.063-0.427,0.157-0.616,0.284
			c-1.45,0.757-2.584,1.814-3.406,3.171c-0.852,1.292-1.278,2.698-1.278,4.21c0,1.862,0.427,3.44,1.278,4.732
			c0.884,1.2,2.004,2.178,3.359,2.936c1.262,0.567,2.572,0.978,3.928,1.229c0.158,0.031,0.315,0.063,0.474,0.096
			c0.977,0.157,2.208,0.236,3.689,0.236v-9.464h2.791c0,7.76,0,11.673,0,11.734l-1.845,0.142c-0.315,0-0.614,0-0.899,0
			c-2.712,0-5.094-0.285-7.144-0.852c-2.083-0.6-3.881-1.608-5.396-3.028c-0.976-0.883-1.751-1.986-2.317-3.313
			c-0.536-1.324-0.805-2.807-0.805-4.447c0-2.114,0.535-3.975,1.608-5.583C103.245,7.817,104.759,6.524,106.715,5.515z M139.08,3.67
			h2.886v14.765c0,0.376-0.062,0.946-0.188,1.704c-0.095,0.662-0.253,1.261-0.474,1.796c-0.378,1.01-0.963,1.877-1.751,2.603
			c-0.788,0.759-1.75,1.357-2.886,1.798c-0.505,0.158-1.043,0.299-1.609,0.426c-0.757,0.127-1.577,0.189-2.46,0.189
			c-0.885,0-1.705-0.063-2.461-0.189c-0.568-0.127-1.088-0.268-1.561-0.426c-1.136-0.442-2.13-1.041-2.981-1.798
			c-0.757-0.726-1.324-1.593-1.703-2.603c-0.221-0.535-0.395-1.134-0.521-1.796c-0.096-0.535-0.143-1.105-0.143-1.704V3.67h2.745
			v14.621c0,0.662,0.078,1.278,0.236,1.846c0.252,1.166,0.771,2.129,1.561,2.886c1.2,1.073,2.808,1.609,4.827,1.609
			c2.239,0,3.896-0.505,4.969-1.514c0.757-0.728,1.261-1.721,1.514-2.981V3.67z M80.123,3.67v14.765c0,1.134-0.158,2.16-0.473,3.076
			c-0.063,0.157-0.125,0.299-0.189,0.424c-0.378,1.01-0.946,1.877-1.703,2.603c-0.821,0.759-1.798,1.357-2.935,1.798
			c-0.503,0.158-1.025,0.299-1.561,0.426c-0.789,0.127-1.625,0.189-2.508,0.189s-1.704-0.063-2.46-0.189
			c-0.537-0.127-1.058-0.268-1.562-0.426c-1.136-0.442-2.112-1.041-2.934-1.798c-0.789-0.726-1.373-1.593-1.752-2.603
			c-0.41-0.977-0.614-2.145-0.614-3.5V3.67h2.744v3.927v1.325v0.331v2.839v1.798v4.398c0,2.082,0.584,3.659,1.751,4.731
			c1.199,1.075,2.808,1.609,4.827,1.609c2.24,0,3.896-0.505,4.968-1.516c0.599-0.568,1.042-1.292,1.325-2.178
			c0.22-0.757,0.332-1.638,0.332-2.649V3.668h2.744V3.67z M56.181,5.894h-1.325c-1.734,0-3.312,0.157-4.731,0.473
			c-1.451,0.252-2.713,0.662-3.786,1.23c-1.482,0.757-2.633,1.814-3.454,3.17c-0.819,1.293-1.23,2.699-1.23,4.211
			c0,1.863,0.426,3.439,1.279,4.732c0.851,1.198,1.971,2.176,3.359,2.934c1.23,0.569,2.524,0.978,3.88,1.231
			c0.569,0.126,1.262,0.188,2.082,0.188c0.474,0,1.199-0.016,2.177-0.049l-0.095-9.273h2.839l-0.047,11.734l-1.846,0.142
			c-0.315,0-0.599,0-0.852,0c-2.713,0-5.109-0.284-7.192-0.85c-2.082-0.601-3.881-1.609-5.394-3.029
			c-0.789-0.691-1.42-1.529-1.893-2.507c-0.158-0.284-0.284-0.551-0.378-0.805c-0.568-1.325-0.851-2.808-0.851-4.448
			c0-1.83,0.41-3.453,1.23-4.873c0.126-0.253,0.253-0.489,0.379-0.71c1.104-1.577,2.632-2.87,4.589-3.881
			c1.294-0.693,2.777-1.199,4.448-1.514c1.609-0.379,3.312-0.569,5.109-0.569h1.515L56.181,5.894z M160.278,24.016v2.366h-13.911
			V3.67h2.791v20.346H160.278z"/>
	</g>
</g>
</svg>
