<?xml version="1.0" encoding="utf-8"?>
<!-- Generator: Adobe Illustrator 16.0.0, SVG Export Plug-In . SVG Version: 6.00 Build 0)  -->
<!DOCTYPE svg PUBLIC "-//W3C//DTD SVG 1.1//EN" "http://www.w3.org/Graphics/SVG/1.1/DTD/svg11.dtd">
<svg version="1.1" id="Layer_1" xmlns="http://www.w3.org/2000/svg" xmlns:xlink="http://www.w3.org/1999/xlink" x="0px" y="0px"
	 width="125px" height="26.667px" viewBox="0 0 125 26.667" enable-background="new 0 0 125 26.667" xml:space="preserve">
<path d="M12.25,1.6c1.7-0.4,3.5-0.6,5.4-0.6h1.6l0.2,2.6h-1.4c-1.833,0-3.5,0.167-5,0.5c-1.532,0.267-2.866,0.7-4,1.3
	C7.485,6.2,6.268,7.317,5.401,8.75c-0.867,1.367-1.3,2.85-1.3,4.45c0,1.967,0.449,3.633,1.35,5c0.9,1.267,2.083,2.3,3.55,3.1
	c1.3,0.6,2.667,1.033,4.101,1.3c0.6,0.134,1.333,0.2,2.199,0.2c0.5,0,1.268-0.018,2.301-0.05l-0.101-9.8h3l-0.05,12.4L18.5,25.5
	c-0.333,0-0.633,0-0.899,0c-2.867,0-5.4-0.3-7.601-0.9c-2.2-0.633-4.1-1.7-5.7-3.2c-0.833-0.732-1.5-1.616-2-2.648
	c-0.167-0.3-0.3-0.583-0.399-0.85c-0.601-1.4-0.9-2.967-0.9-4.7c0-1.933,0.434-3.65,1.3-5.15c0.134-0.267,0.268-0.517,0.4-0.75
	c1.167-1.667,2.784-3.033,4.85-4.1C8.917,2.467,10.484,1.933,12.25,1.6z M47.75,1.15c0.167,0,0.3,0,0.4,0c0.5,0,0.982,0,1.45,0
	c1.032,0,2.05,0.05,3.05,0.15c0.967,0.133,1.917,0.4,2.85,0.8c1.2,0.534,2.15,1.284,2.851,2.25c0.667,0.967,1,2.117,1,3.45
	c0,1.7-0.534,3.117-1.601,4.25c-0.5,0.567-1,1.05-1.5,1.45c-0.467,0.433-0.934,0.783-1.399,1.05l2.55,3.05
	c0.899,0.934,1.833,1.934,2.8,3c1.934,2,3,3.101,3.2,3.3l-2.2,1.75l-0.05,0.051c-0.033,0-0.05-0.017-0.05-0.051
	c-0.167-0.166-0.468-0.482-0.9-0.949c-0.433-0.5-1.05-1.217-1.85-2.149c-0.867-0.935-1.9-2.1-3.101-3.5
	c-1.232-1.367-2.684-3-4.35-4.9v-0.15c0.232-0.067,0.5-0.167,0.8-0.3c0.367-0.133,0.7-0.3,1-0.5c0.367-0.167,0.717-0.367,1.05-0.6
	c0.3-0.233,0.601-0.466,0.9-0.7c0.434-0.4,0.816-0.883,1.149-1.45c0.333-0.6,0.5-1.417,0.5-2.45c0-0.934-0.25-1.733-0.75-2.4
	c-0.466-0.667-1.133-1.167-2-1.5c-0.7-0.233-1.433-0.367-2.2-0.4c-0.767-0.066-1.482-0.1-2.149-0.1c-0.4,0-0.716,0-0.95,0
	s-0.4,0-0.5,0V1.15L47.75,1.15z M81.8,3.6h-1.399c-1.833,0-3.518,0.167-5.05,0.5c-1.233,0.233-2.352,0.567-3.352,1
	c-0.232,0.067-0.449,0.167-0.648,0.3c-1.533,0.8-2.733,1.917-3.602,3.35c-0.898,1.367-1.35,2.85-1.35,4.45
	c0,1.967,0.45,3.633,1.35,5c0.935,1.267,2.117,2.3,3.551,3.1c1.333,0.6,2.717,1.033,4.149,1.3c0.167,0.033,0.334,0.066,0.5,0.101
	c1.033,0.166,2.334,0.25,3.899,0.25v-10h2.95c0,8.201,0,12.333,0,12.4l-1.95,0.15c-0.334,0-0.649,0-0.949,0
	c-2.866,0-5.385-0.301-7.551-0.9c-2.199-0.633-4.101-1.699-5.699-3.199c-1.033-0.934-1.851-2.101-2.45-3.5
	c-0.566-1.4-0.851-2.967-0.851-4.7c0-2.233,0.566-4.2,1.7-5.9c1.133-1.667,2.733-3.033,4.8-4.1c0.7-0.333,1.416-0.633,2.149-0.9
	c0.801-0.3,1.65-0.533,2.551-0.7c1.733-0.4,3.55-0.6,5.449-0.6h1.601L81.8,3.6z M109.45,1.25h2.95v21.5h11.75v2.5h-14.7V1.25z
	 M103.05,1.25h3.05v15.6c0,0.4-0.065,1-0.2,1.8c-0.1,0.7-0.267,1.333-0.5,1.9c-0.399,1.066-1.017,1.982-1.85,2.75
	c-0.834,0.8-1.851,1.434-3.051,1.9c-0.533,0.166-1.101,0.315-1.699,0.449c-0.801,0.133-1.667,0.199-2.601,0.199
	c-0.935,0-1.801-0.066-2.601-0.199c-0.601-0.134-1.149-0.283-1.649-0.449c-1.2-0.467-2.25-1.102-3.149-1.9
	c-0.801-0.768-1.4-1.684-1.801-2.75c-0.233-0.567-0.416-1.2-0.55-1.9c-0.101-0.567-0.149-1.167-0.149-1.8V1.25h2.899V16.7
	c0,0.7,0.084,1.35,0.25,1.95c0.267,1.233,0.815,2.25,1.649,3.05c1.268,1.133,2.967,1.699,5.101,1.699
	c2.366,0,4.116-0.533,5.25-1.601c0.8-0.767,1.334-1.817,1.601-3.15V1.25z M26.901,1.25V16.7c0,2.2,0.617,3.868,1.85,5
	c1.268,1.133,2.967,1.699,5.101,1.699c2.366,0,4.116-0.533,5.25-1.601c0.633-0.601,1.1-1.366,1.399-2.3
	c0.233-0.8,0.351-1.733,0.351-2.8V1.25h2.899v15.6c0,1.2-0.167,2.284-0.5,3.25c-0.066,0.167-0.133,0.316-0.2,0.45
	c-0.399,1.066-1,1.982-1.8,2.75c-0.867,0.8-1.899,1.434-3.1,1.9c-0.533,0.166-1.083,0.315-1.65,0.449
	c-0.833,0.133-1.717,0.199-2.649,0.199c-0.935,0-1.801-0.066-2.601-0.199c-0.566-0.134-1.117-0.283-1.649-0.449
	c-1.2-0.467-2.233-1.102-3.101-1.9c-0.833-0.768-1.45-1.684-1.85-2.75c-0.434-1.033-0.65-2.267-0.65-3.7V1.25H26.901z"/>
</svg>
