<?xml version="1.0" encoding="utf-8"?>
<!-- Generator: Adobe Illustrator 16.0.0, SVG Export Plug-In . SVG Version: 6.00 Build 0)  -->
<!DOCTYPE svg PUBLIC "-//W3C//DTD SVG 1.1//EN" "http://www.w3.org/Graphics/SVG/1.1/DTD/svg11.dtd">
<svg version="1.1" id="Layer_1" xmlns="http://www.w3.org/2000/svg" xmlns:xlink="http://www.w3.org/1999/xlink" x="0px" y="0px"
	 width="166px" height="36.5px" viewBox="0 0 166 36.5" enable-background="new 0 0 166 36.5" xml:space="preserve">
<g id="Layer_1_1_">
	<g>
		<path fill="#EF5567" d="M90.05,1.4c0.967,0.133,1.917,0.398,2.85,0.8c1.2,0.532,2.15,1.282,2.851,2.25c0.667,0.967,1,2.116,1,3.45
			c0,1.699-0.533,3.115-1.601,4.25c-0.5,0.565-1,1.05-1.5,1.449c-0.467,0.434-0.933,0.783-1.399,1.051l2.55,3.05
			c0.9,0.934,1.833,1.934,2.8,3c1.934,2,3,3.1,3.2,3.3l-2.2,1.75l-0.05,0.05c-0.033,0-0.05-0.017-0.05-0.05
			c-0.167-0.167-0.467-0.482-0.9-0.95c-0.434-0.5-1.05-1.217-1.85-2.149c-0.867-0.934-1.9-2.101-3.101-3.5
			c-1.232-1.366-2.683-3-4.35-4.899v-0.149c0.233-0.066,0.5-0.166,0.8-0.301c0.367-0.133,0.7-0.3,1-0.5
			c0.367-0.166,0.717-0.365,1.05-0.6c0.301-0.233,0.601-0.467,0.9-0.7c0.434-0.399,0.817-0.884,1.15-1.45
			c0.333-0.6,0.5-1.416,0.5-2.449c0-0.934-0.25-1.733-0.75-2.399c-0.468-0.667-1.134-1.167-2-1.5c-0.7-0.233-1.435-0.367-2.2-0.4
			c-0.768-0.065-1.483-0.1-2.15-0.1c-0.399,0-0.717,0-0.95,0c-0.232,0-0.399,0-0.5,0v-2.45c0.167,0,0.301,0,0.4,0
			c0.5,0,0.983,0,1.45,0C88.033,1.25,89.05,1.3,90.05,1.4z M108.35,3.3c0.7-0.333,1.417-0.633,2.15-0.899
			c0.8-0.301,1.649-0.533,2.55-0.699c1.733-0.4,3.55-0.602,5.45-0.602h1.6l0.2,2.602h-1.4c-1.833,0-3.517,0.166-5.05,0.5
			c-1.232,0.232-2.35,0.566-3.35,1c-0.233,0.066-0.45,0.166-0.65,0.3c-1.533,0.8-2.732,1.917-3.6,3.351
			c-0.9,1.366-1.351,2.851-1.351,4.449c0,1.967,0.45,3.635,1.351,5c0.933,1.268,2.117,2.301,3.55,3.102
			c1.333,0.6,2.717,1.033,4.15,1.3c0.167,0.032,0.333,0.065,0.5,0.1c1.032,0.167,2.333,0.25,3.899,0.25v-10h2.95
			c0,8.2,0,12.334,0,12.4l-1.95,0.149c-0.333,0-0.649,0-0.95,0c-2.866,0-5.383-0.301-7.55-0.899c-2.2-0.634-4.1-1.7-5.7-3.2
			c-1.032-0.934-1.85-2.1-2.449-3.5c-0.567-1.4-0.851-2.967-0.851-4.7c0-2.233,0.566-4.2,1.7-5.899
			C104.683,5.732,106.283,4.366,108.35,3.3z M142.55,1.35h3.05v15.602c0,0.398-0.066,1-0.2,1.8c-0.1,0.7-0.267,1.333-0.5,1.899
			c-0.399,1.066-1.017,1.983-1.85,2.75c-0.833,0.801-1.85,1.434-3.05,1.899c-0.533,0.167-1.101,0.316-1.7,0.45
			c-0.8,0.134-1.667,0.2-2.6,0.2c-0.935,0-1.801-0.066-2.601-0.2c-0.6-0.134-1.149-0.283-1.649-0.45c-1.2-0.467-2.25-1.1-3.15-1.899
			c-0.8-0.767-1.4-1.684-1.8-2.75c-0.233-0.566-0.417-1.199-0.55-1.899c-0.101-0.565-0.15-1.167-0.15-1.8V1.35h2.9V16.8
			c0,0.7,0.083,1.351,0.25,1.95c0.267,1.232,0.815,2.25,1.649,3.05c1.268,1.134,2.967,1.7,5.101,1.7c2.366,0,4.116-0.533,5.25-1.6
			c0.8-0.768,1.333-1.817,1.6-3.15V1.35z M80.25,1.35v15.602c0,1.199-0.167,2.283-0.5,3.25c-0.067,0.166-0.133,0.316-0.2,0.449
			c-0.4,1.066-1,1.983-1.8,2.75c-0.867,0.801-1.9,1.434-3.101,1.899c-0.532,0.167-1.083,0.316-1.649,0.45
			c-0.833,0.134-1.717,0.2-2.65,0.2s-1.8-0.066-2.6-0.2c-0.567-0.134-1.117-0.283-1.65-0.45c-1.2-0.467-2.232-1.1-3.1-1.899
			c-0.833-0.767-1.45-1.684-1.851-2.75c-0.433-1.033-0.649-2.267-0.649-3.699V1.35h2.899V5.5v1.4v0.35v3v1.9v4.648
			c0,2.2,0.617,3.867,1.851,5c1.267,1.135,2.967,1.7,5.1,1.7c2.367,0,4.117-0.533,5.25-1.601c0.633-0.601,1.101-1.366,1.4-2.301
			c0.232-0.8,0.35-1.732,0.35-2.8V1.348h2.9V1.35z M54.95,3.7h-1.4c-1.833,0-3.5,0.166-5,0.5c-1.533,0.267-2.867,0.7-4,1.3
			c-1.566,0.8-2.783,1.917-3.65,3.35c-0.866,1.367-1.3,2.852-1.3,4.45c0,1.968,0.45,3.634,1.351,5c0.899,1.267,2.083,2.3,3.55,3.101
			c1.3,0.601,2.667,1.033,4.1,1.301c0.601,0.133,1.333,0.199,2.2,0.199c0.5,0,1.267-0.017,2.3-0.051l-0.1-9.8h3l-0.05,12.4L54,25.6
			c-0.333,0-0.633,0-0.9,0c-2.867,0-5.399-0.301-7.6-0.899c-2.2-0.634-4.101-1.7-5.7-3.2c-0.833-0.732-1.5-1.616-2-2.65
			c-0.167-0.3-0.3-0.582-0.4-0.85c-0.6-1.4-0.899-2.967-0.899-4.7c0-1.934,0.433-3.649,1.3-5.149c0.133-0.267,0.267-0.517,0.4-0.75
			c1.167-1.666,2.782-3.033,4.85-4.101c1.367-0.733,2.934-1.267,4.7-1.6c1.7-0.4,3.5-0.601,5.399-0.601h1.601L54.95,3.7z
			 M164.95,22.85v2.5h-14.7v-24h2.95v21.5H164.95z"/>
	</g>
</g>
</svg>
