<?xml version="1.0" encoding="utf-8"?>
<!-- Generator: Adobe Illustrator 16.0.0, SVG Export Plug-In . SVG Version: 6.00 Build 0)  -->
<!DOCTYPE svg PUBLIC "-//W3C//DTD SVG 1.1//EN" "http://www.w3.org/Graphics/SVG/1.1/DTD/svg11.dtd">
<svg version="1.1" id="Layer_1" xmlns="http://www.w3.org/2000/svg" xmlns:xlink="http://www.w3.org/1999/xlink" x="0px" y="0px"
	 width="166px" height="36.5px" viewBox="0 0 166 36.5" enable-background="new 0 0 166 36.5" xml:space="preserve">
<g id="Layer_1_1_">
	<path fill="#010101" d="M27.7,31.3v2.9H1.75v-2.9H27.7z"/>
	<g>
		<path fill="#010101" d="M40.355,35.122L39.27,31.02h0.556l0.625,2.688c0.067,0.284,0.125,0.563,0.172,0.84
			c0.106-0.438,0.169-0.69,0.188-0.758l0.777-2.771h0.656l0.586,2.078c0.147,0.514,0.255,0.996,0.319,1.449
			c0.053-0.258,0.12-0.555,0.203-0.891l0.646-2.637h0.547l-1.125,4.102h-0.523l-0.862-3.125c-0.073-0.262-0.116-0.421-0.13-0.48
			c-0.044,0.188-0.084,0.349-0.12,0.48l-0.871,3.125L40.355,35.122L40.355,35.122z"/>
		<polygon fill="#010101" points="51.06,35.122 51.06,31.021 54.023,31.021 54.023,31.505 51.603,31.505 51.603,32.764
			53.872,32.764 53.872,33.243 51.603,33.243 51.603,34.639 54.118,34.639 54.118,35.122 		"/>
		<path fill="#010101" d="M60.845,35.122V31.02h1.539c0.313,0,0.564,0.043,0.754,0.125c0.19,0.084,0.338,0.213,0.445,0.386
			c0.106,0.173,0.16,0.354,0.16,0.54c0,0.176-0.048,0.34-0.144,0.494c-0.096,0.156-0.239,0.281-0.432,0.377
			c0.25,0.07,0.44,0.193,0.574,0.369c0.133,0.176,0.198,0.385,0.198,0.623c0,0.19-0.041,0.368-0.121,0.533
			c-0.079,0.165-0.181,0.293-0.301,0.383s-0.27,0.157-0.449,0.203c-0.179,0.047-0.399,0.068-0.659,0.068L60.845,35.122
			L60.845,35.122z M61.388,32.743h0.887c0.242,0,0.416-0.017,0.521-0.048c0.138-0.041,0.242-0.109,0.311-0.204
			c0.069-0.095,0.104-0.214,0.104-0.357c0-0.136-0.033-0.255-0.099-0.356c-0.064-0.103-0.157-0.174-0.278-0.213
			s-0.329-0.06-0.623-0.06h-0.82v1.238H61.388z M61.388,34.639h1.023c0.174,0,0.297-0.008,0.366-0.021
			c0.125-0.021,0.23-0.058,0.314-0.111c0.084-0.053,0.154-0.13,0.207-0.229c0.053-0.098,0.08-0.213,0.08-0.344
			c0-0.152-0.039-0.287-0.117-0.399c-0.078-0.113-0.187-0.192-0.326-0.238c-0.139-0.046-0.339-0.067-0.6-0.067h-0.949L61.388,34.639
			L61.388,34.639z"/>
		<path fill="#010101" d="M78.277,35.122V31.02h1.414c0.318,0,0.562,0.021,0.73,0.06c0.233,0.055,0.435,0.153,0.602,0.297
			c0.217,0.183,0.377,0.415,0.484,0.699s0.16,0.608,0.16,0.973c0,0.313-0.037,0.589-0.109,0.83s-0.166,0.44-0.279,0.599
			c-0.112,0.157-0.237,0.28-0.372,0.371c-0.136,0.09-0.3,0.157-0.49,0.204c-0.191,0.048-0.411,0.07-0.658,0.07H78.277L78.277,35.122
			z M78.82,34.639h0.875c0.271,0,0.483-0.025,0.638-0.076c0.153-0.051,0.275-0.123,0.367-0.213c0.13-0.129,0.23-0.301,0.303-0.519
			s0.106-0.481,0.106-0.791c0-0.427-0.069-0.756-0.211-0.985c-0.141-0.23-0.313-0.386-0.516-0.464
			c-0.146-0.058-0.379-0.086-0.699-0.086H78.82V34.639L78.82,34.639z"/>
		<polygon fill="#010101" points="88.427,35.122 88.427,31.021 91.392,31.021 91.392,31.505 88.97,31.505 88.97,32.764
			91.238,32.764 91.238,33.243 88.97,33.243 88.97,34.639 91.484,34.639 91.484,35.122 		"/>
		<path fill="#010101" d="M99.407,35.122l-1.591-4.103h0.591L99.473,34c0.086,0.239,0.158,0.464,0.215,0.672
			c0.063-0.224,0.135-0.447,0.219-0.672l1.109-2.98h0.555l-1.604,4.103H99.407z"/>
		<polygon fill="#010101" points="108.066,35.122 108.066,31.021 111.032,31.021 111.032,31.505 108.609,31.505 108.609,32.764
			110.88,32.764 110.88,33.243 108.609,33.243 108.609,34.639 111.126,34.639 111.126,35.122 		"/>
		<polygon fill="#010101" points="117.853,35.122 117.853,31.021 118.396,31.021 118.396,34.639 120.415,34.639 120.415,35.122
			"/>
		<path fill="#010101" d="M126.898,33.126c0-0.683,0.184-1.216,0.549-1.601c0.366-0.383,0.839-0.575,1.416-0.575
			c0.378,0,0.719,0.091,1.021,0.271s0.535,0.434,0.695,0.756c0.16,0.323,0.239,0.69,0.239,1.103c0,0.414-0.084,0.785-0.252,1.112
			c-0.168,0.328-0.405,0.578-0.713,0.746c-0.307,0.17-0.639,0.254-0.996,0.254c-0.385,0-0.729-0.092-1.034-0.278
			c-0.306-0.187-0.535-0.44-0.691-0.765C126.977,33.825,126.898,33.484,126.898,33.126z M127.458,33.134
			c0,0.495,0.133,0.884,0.397,1.168c0.266,0.284,0.6,0.427,1,0.427c0.409,0,0.746-0.145,1.011-0.431
			c0.264-0.286,0.396-0.694,0.396-1.223c0-0.333-0.057-0.624-0.17-0.873s-0.279-0.442-0.496-0.58s-0.461-0.207-0.732-0.207
			c-0.383,0-0.713,0.132-0.989,0.396C127.597,32.075,127.458,32.518,127.458,33.134z"/>
		<path fill="#010101" d="M137.521,35.122V31.02h1.547c0.273,0,0.482,0.014,0.625,0.039c0.201,0.034,0.369,0.1,0.507,0.193
			c0.137,0.094,0.245,0.229,0.327,0.396s0.123,0.354,0.123,0.559c0,0.35-0.11,0.645-0.332,0.885
			c-0.221,0.241-0.623,0.361-1.203,0.361h-1.051v1.668L137.521,35.122L137.521,35.122z M138.063,32.971h1.06
			c0.352,0,0.601-0.066,0.748-0.195c0.146-0.131,0.221-0.313,0.221-0.551c0-0.173-0.043-0.318-0.129-0.439s-0.201-0.201-0.344-0.24
			c-0.092-0.025-0.26-0.039-0.505-0.039h-1.051V32.971L138.063,32.971z"/>
		<polygon fill="#010101" points="147.353,35.122 147.353,31.021 150.316,31.021 150.316,31.505 147.896,31.505 147.896,32.764
			150.165,32.764 150.165,33.243 147.896,33.243 147.896,34.639 150.411,34.639 150.411,35.122 		"/>
		<path fill="#010101" d="M157.168,35.122V31.02h1.819c0.365,0,0.643,0.037,0.832,0.111c0.19,0.074,0.343,0.204,0.455,0.391
			c0.113,0.188,0.17,0.394,0.17,0.619c0,0.289-0.094,0.534-0.28,0.734c-0.188,0.2-0.479,0.327-0.871,0.379
			c0.143,0.07,0.251,0.141,0.324,0.207c0.158,0.146,0.31,0.327,0.452,0.543l0.711,1.117h-0.68l-0.543-0.852
			c-0.159-0.248-0.29-0.438-0.393-0.566c-0.104-0.129-0.195-0.223-0.275-0.273s-0.163-0.089-0.246-0.109
			c-0.063-0.012-0.164-0.02-0.305-0.02h-0.629v1.82L157.168,35.122L157.168,35.122z M157.711,32.833h1.168
			c0.248,0,0.44-0.026,0.58-0.078c0.139-0.052,0.246-0.134,0.317-0.246c0.072-0.112,0.109-0.233,0.109-0.366
			c0-0.195-0.07-0.355-0.211-0.48s-0.363-0.188-0.668-0.188h-1.297L157.711,32.833L157.711,32.833z"/>
	</g>
	<g>
		<path fill="#010101" d="M90.05,1.4c0.967,0.133,1.917,0.398,2.85,0.8c1.2,0.532,2.15,1.282,2.851,2.25c0.667,0.967,1,2.116,1,3.45
			c0,1.699-0.533,3.115-1.601,4.25c-0.5,0.565-1,1.05-1.5,1.449c-0.467,0.434-0.933,0.783-1.399,1.051l2.55,3.05
			c0.9,0.934,1.833,1.934,2.8,3c1.934,2,3,3.1,3.2,3.3l-2.2,1.75l-0.05,0.05c-0.033,0-0.05-0.017-0.05-0.05
			c-0.167-0.167-0.467-0.482-0.9-0.95c-0.434-0.5-1.05-1.217-1.85-2.149c-0.867-0.934-1.9-2.101-3.101-3.5
			c-1.232-1.366-2.683-3-4.35-4.899v-0.149c0.233-0.066,0.5-0.166,0.8-0.301c0.367-0.133,0.7-0.3,1-0.5
			c0.367-0.166,0.717-0.365,1.05-0.6c0.301-0.233,0.601-0.467,0.9-0.7c0.434-0.399,0.817-0.884,1.15-1.45
			c0.333-0.6,0.5-1.416,0.5-2.449c0-0.934-0.25-1.733-0.75-2.399c-0.468-0.667-1.134-1.167-2-1.5c-0.7-0.233-1.435-0.367-2.2-0.4
			c-0.768-0.065-1.483-0.1-2.15-0.1c-0.399,0-0.717,0-0.95,0c-0.232,0-0.399,0-0.5,0v-2.45c0.167,0,0.301,0,0.4,0
			c0.5,0,0.983,0,1.45,0C88.033,1.25,89.05,1.3,90.05,1.4z M108.35,3.3c0.7-0.333,1.417-0.633,2.15-0.899
			c0.8-0.301,1.649-0.533,2.55-0.699c1.733-0.4,3.55-0.602,5.45-0.602h1.6l0.2,2.602h-1.4c-1.833,0-3.517,0.166-5.05,0.5
			c-1.232,0.232-2.35,0.566-3.35,1c-0.233,0.066-0.45,0.166-0.65,0.3c-1.533,0.8-2.732,1.917-3.6,3.351
			c-0.9,1.366-1.351,2.851-1.351,4.449c0,1.967,0.45,3.635,1.351,5c0.933,1.268,2.117,2.301,3.55,3.102
			c1.333,0.6,2.717,1.033,4.15,1.3c0.167,0.032,0.333,0.065,0.5,0.1c1.032,0.167,2.333,0.25,3.899,0.25v-10h2.95
			c0,8.2,0,12.334,0,12.4l-1.95,0.149c-0.333,0-0.649,0-0.95,0c-2.866,0-5.383-0.301-7.55-0.899c-2.2-0.634-4.1-1.7-5.7-3.2
			c-1.032-0.934-1.85-2.1-2.449-3.5c-0.567-1.4-0.851-2.967-0.851-4.7c0-2.233,0.566-4.2,1.7-5.899
			C104.683,5.732,106.283,4.366,108.35,3.3z M142.55,1.35h3.05v15.602c0,0.398-0.066,1-0.2,1.8c-0.1,0.7-0.267,1.333-0.5,1.899
			c-0.399,1.066-1.017,1.983-1.85,2.75c-0.833,0.801-1.85,1.434-3.05,1.899c-0.533,0.167-1.101,0.316-1.7,0.45
			c-0.8,0.134-1.667,0.2-2.6,0.2c-0.935,0-1.801-0.066-2.601-0.2c-0.6-0.134-1.149-0.283-1.649-0.45c-1.2-0.467-2.25-1.1-3.15-1.899
			c-0.8-0.767-1.4-1.684-1.8-2.75c-0.233-0.566-0.417-1.199-0.55-1.899c-0.101-0.565-0.15-1.167-0.15-1.8V1.35h2.9V16.8
			c0,0.7,0.083,1.351,0.25,1.95c0.267,1.232,0.815,2.25,1.649,3.05c1.268,1.134,2.967,1.7,5.101,1.7c2.366,0,4.116-0.533,5.25-1.6
			c0.8-0.768,1.333-1.817,1.6-3.15V1.35z M80.25,1.35v15.602c0,1.199-0.167,2.283-0.5,3.25c-0.067,0.166-0.133,0.316-0.2,0.449
			c-0.4,1.066-1,1.983-1.8,2.75c-0.867,0.801-1.9,1.434-3.101,1.899c-0.532,0.167-1.083,0.316-1.649,0.45
			c-0.833,0.134-1.717,0.2-2.65,0.2s-1.8-0.066-2.6-0.2c-0.567-0.134-1.117-0.283-1.65-0.45c-1.2-0.467-2.232-1.1-3.1-1.899
			c-0.833-0.767-1.45-1.684-1.851-2.75c-0.433-1.033-0.649-2.267-0.649-3.699V1.35h2.899V5.5v1.4v0.35v3v1.9v4.648
			c0,2.2,0.617,3.867,1.851,5c1.267,1.135,2.967,1.7,5.1,1.7c2.367,0,4.117-0.533,5.25-1.601c0.633-0.601,1.101-1.366,1.4-2.301
			c0.232-0.8,0.35-1.732,0.35-2.8V1.348h2.9V1.35z M54.95,3.7h-1.4c-1.833,0-3.5,0.166-5,0.5c-1.533,0.267-2.867,0.7-4,1.3
			c-1.566,0.8-2.783,1.917-3.65,3.35c-0.866,1.367-1.3,2.852-1.3,4.45c0,1.968,0.45,3.634,1.351,5c0.899,1.267,2.083,2.3,3.55,3.101
			c1.3,0.601,2.667,1.033,4.1,1.301c0.601,0.133,1.333,0.199,2.2,0.199c0.5,0,1.267-0.017,2.3-0.051l-0.1-9.8h3l-0.05,12.4L54,25.6
			c-0.333,0-0.633,0-0.9,0c-2.867,0-5.399-0.301-7.6-0.899c-2.2-0.634-4.101-1.7-5.7-3.2c-0.833-0.732-1.5-1.616-2-2.65
			c-0.167-0.3-0.3-0.582-0.4-0.85c-0.6-1.4-0.899-2.967-0.899-4.7c0-1.934,0.433-3.649,1.3-5.149c0.133-0.267,0.267-0.517,0.4-0.75
			c1.167-1.666,2.782-3.033,4.85-4.101c1.367-0.733,2.934-1.267,4.7-1.6c1.7-0.4,3.5-0.601,5.399-0.601h1.601L54.95,3.7z
			 M164.95,22.85v2.5h-14.7v-24h2.95v21.5H164.95z"/>
	</g>
</g>
</svg>
