<?xml version="1.0" encoding="utf-8"?>
<!-- Generator: Adobe Illustrator 16.0.0, SVG Export Plug-In . SVG Version: 6.00 Build 0)  -->
<!DOCTYPE svg PUBLIC "-//W3C//DTD SVG 1.1//EN" "http://www.w3.org/Graphics/SVG/1.1/DTD/svg11.dtd">
<svg version="1.1" id="Layer_1" xmlns="http://www.w3.org/2000/svg" xmlns:xlink="http://www.w3.org/1999/xlink" x="0px" y="0px"
	 width="130.875px" height="25.875px" viewBox="0 0 130.875 25.875" enable-background="new 0 0 130.875 25.875"
	 xml:space="preserve">
<rect x="-22.885" y="-21.927" width="182.333" height="91.333"/>
<path fill="#FFFFFF" d="M8.9,4.975c-1.566,0.8-2.783,1.917-3.65,3.35c-0.867,1.367-1.3,2.85-1.3,4.45c0,1.967,0.45,3.633,1.35,5
	c0.9,1.267,2.083,2.3,3.55,3.1c1.3,0.6,2.667,1.033,4.1,1.3c0.6,0.134,1.333,0.2,2.2,0.2c0.5,0,1.161,0.001,2.194-0.031l0.006-8.818
	h3l0.025,11.428l-2.025,0.122c-0.333,0-0.633,0-0.9,0c-2.867,0-5.4-0.3-7.6-0.9c-2.2-0.633-4.1-1.7-5.7-3.2
	c-0.833-0.731-1.5-1.615-2-2.647c-0.167-0.302-0.3-0.583-0.4-0.851c-0.6-1.399-0.9-2.968-0.9-4.701c0-1.933,0.433-3.65,1.3-5.15
	c0.133-0.267,0.267-0.517,0.4-0.75c1.167-1.667,2.784-3.033,4.85-4.1c1.367-0.733,2.934-1.267,4.7-1.6c1.7-0.4,3.5-0.6,5.4-0.6h1.6
	l0.2,2.6h-1.4c-1.833,0-3.5,0.167-5,0.5C11.367,3.942,10.033,4.375,8.9,4.975z M114.65,0.825h2.949v21.5h11.75v2.5H114.65V0.825z
	 M24.85,0.825h2.9v15.45c0,2.199,0.617,3.867,1.85,5c1.267,1.133,2.967,1.699,5.1,1.699c2.367,0,4.117-0.533,5.25-1.602
	c0.633-0.602,1.1-1.366,1.4-2.3c0.233-0.802,0.35-1.733,0.35-2.802V0.825h2.9v15.6c0,1.2-0.167,2.284-0.5,3.25
	c-0.067,0.167-0.133,0.316-0.2,0.45c-0.4,1.066-1,1.982-1.8,2.75c-0.867,0.8-1.9,1.434-3.1,1.9c-0.533,0.166-1.083,0.314-1.65,0.449
	c-0.833,0.133-1.717,0.198-2.65,0.198c-0.934,0-1.8-0.065-2.6-0.198c-0.567-0.135-1.117-0.283-1.65-0.449
	c-1.2-0.467-2.233-1.103-3.1-1.9c-0.833-0.768-1.45-1.684-1.85-2.75c-0.433-1.033-0.65-2.268-0.65-3.7V0.825z M90.15,0.825h2.897
	v15.45c0,0.699,0.084,1.35,0.25,1.949c0.269,1.232,0.815,2.25,1.65,3.051c1.267,1.133,2.967,1.699,5.1,1.699
	c2.367,0,4.117-0.533,5.25-1.602c0.802-0.768,1.334-1.816,1.603-3.148v-17.4h3.05v15.6c0,0.4-0.066,1-0.2,1.801
	c-0.1,0.699-0.268,1.332-0.5,1.899c-0.4,1.065-1.018,1.983-1.85,2.75c-0.834,0.8-1.853,1.435-3.051,1.899
	c-0.533,0.166-1.102,0.315-1.699,0.449c-0.801,0.135-1.668,0.199-2.603,0.199s-1.8-0.064-2.6-0.199
	c-0.603-0.134-1.15-0.283-1.65-0.449c-1.198-0.467-2.25-1.102-3.147-1.899c-0.801-0.767-1.4-1.685-1.801-2.75
	c-0.233-0.567-0.416-1.2-0.552-1.899c-0.1-0.566-0.147-1.168-0.147-1.801V0.825z M67.05,17.475c-0.565-1.398-0.85-2.967-0.85-4.7
	c0-2.233,0.565-4.2,1.7-5.9c1.133-1.667,2.731-3.033,4.8-4.1c0.7-0.333,1.416-0.633,2.149-0.9c0.801-0.3,1.648-0.533,2.551-0.7
	c1.731-0.4,3.55-0.6,5.449-0.6h1.601l0.2,2.6h-1.4c-1.833,0-3.518,0.167-5.05,0.5c-1.233,0.233-2.351,0.567-3.351,1
	c-0.233,0.067-0.449,0.167-0.649,0.3c-1.533,0.8-2.733,1.917-3.601,3.35c-0.899,1.367-1.352,2.85-1.352,4.45
	c0,1.967,0.449,3.633,1.352,5c0.934,1.267,2.115,2.3,3.551,3.1c1.332,0.6,2.716,1.033,4.147,1.3c0.167,0.033,0.334,0.066,0.5,0.101
	c1.033,0.166,2.334,0.25,3.9,0.25v-9h2.948c0,8.201,0,11.334,0,11.4l-1.948,0.15c-0.335,0-0.65,0-0.95,0
	c-2.866,0-5.385-0.301-7.55-0.9c-2.2-0.633-4.103-1.699-5.7-3.199C68.467,20.042,67.65,18.875,67.05,17.475z M50.1,3.175
	c-0.233,0-0.4,0-0.5,0v-2.45c0.167,0,0.3,0,0.4,0c0.5,0,0.983,0,1.45,0c1.033,0,2.05,0.05,3.05,0.15c0.967,0.133,1.917,0.4,2.85,0.8
	c1.2,0.534,2.15,1.284,2.85,2.25c0.667,0.967,1,2.117,1,3.45c0,1.7-0.534,3.117-1.6,4.25c-0.5,0.567-1,1.05-1.5,1.45
	c-0.467,0.433-0.934,0.782-1.4,1.05l2.55,3.05c0.9,0.935,1.833,1.935,2.8,3c1.934,2,3,3.101,3.2,3.3l-2.2,1.75L63,25.275
	c-0.033,0-0.05-0.019-0.05-0.051c-0.167-0.166-0.467-0.483-0.9-0.949c-0.433-0.5-1.05-1.217-1.85-2.15c-0.867-0.934-1.9-2.1-3.1-3.5
	c-1.233-1.367-2.684-3-4.35-4.9v-0.148c0.233-0.067,0.5-0.167,0.8-0.3c0.367-0.133,0.7-0.3,1-0.5c0.367-0.167,0.717-0.367,1.05-0.6
	c0.3-0.233,0.6-0.466,0.9-0.7c0.433-0.4,0.817-0.883,1.15-1.45c0.333-0.6,0.5-1.417,0.5-2.45c0-0.934-0.25-1.733-0.75-2.4
	c-0.467-0.667-1.133-1.167-2-1.5c-0.7-0.233-1.433-0.367-2.2-0.4c-0.767-0.066-1.483-0.1-2.15-0.1
	C50.65,3.175,50.333,3.175,50.1,3.175z"/>
<rect x="170.938" y="69.438" width="182.334" height="91.333"/>
<circle fill="#FFFFFF" cx="-3.896" cy="13.604" r="2.167"/>
</svg>
